<svg width="287.000000" height="46.000000" viewBox="0 0 287 46" fill="none" xmlns="http://www.w3.org/2000/svg" xmlns:xlink="http://www.w3.org/1999/xlink">
	<desc>
			Created with Pixso.
	</desc>
	<defs>
		<clipPath id="clip5_1">
			<rect id="Saving-Bull--Streamline-Ultimate" width="41.000015" height="41.000004" fill="white" fill-opacity="0"/>
		</clipPath>
		<clipPath id="clip5_12">
			<rect id="Livestock-Cow-Body--Streamline-Ultimate" width="41.000015" height="41.000015" transform="matrix(-1 0 0 1 286 5)" fill="white" fill-opacity="0"/>
		</clipPath>
	</defs>
	<g clip-path="url(#clip5_1)">
		<path id="path" d="M3.41 24.77C3.44 25.26 3.53 25.75 3.69 26.22C4.17 27.73 5.2 29.16 6.54 30.03C7.19 30.52 7.82 31.04 8.43 31.6C8.76 31.89 9.08 32.16 9.39 32.45L10.11 36.04C10.15 36.23 10.25 36.41 10.41 36.53C10.56 36.66 10.75 36.72 10.95 36.72L13.44 36.72C13.57 36.72 13.69 36.69 13.81 36.64C13.92 36.58 14.02 36.5 14.1 36.4C14.18 36.3 14.24 36.19 14.27 36.06C14.3 35.94 14.3 35.81 14.28 35.68C13.95 34.34 13.75 32.98 13.66 31.6C13.75 30.73 13.92 29.87 14.17 29.04L19.64 29.04L23.66 36.28C23.73 36.41 23.84 36.53 23.97 36.6C24.1 36.68 24.25 36.72 24.41 36.72L25.24 36.72C25.38 36.72 25.52 36.69 25.64 36.63C25.76 36.57 25.86 36.48 25.94 36.37C26.02 36.26 26.07 36.13 26.09 35.99C26.11 35.86 26.09 35.72 26.05 35.6C25.35 33.77 24.92 31.84 24.77 29.89L24.77 29.69C24.77 28.83 25.07 27.99 25.62 27.33C26.67 26.89 27.75 26.54 28.85 26.29C30.51 25.89 32.21 25.69 33.92 25.69C34.2 26.29 34.57 26.84 35.02 27.33C35.87 28.18 38.43 29.89 39.29 29.04C40.14 28.18 40.14 22.2 40.14 22.2L36.21 18.8C31.62 15.76 27.47 11.95 22.2 11.95C14.31 11.95 15.75 17.2 9.39 18.79C6.18 19.59 3.41 21.47 3.41 24.77Z" fill="#C77F67" fill-opacity="1.000000" fill-rule="nonzero"/>
		<path id="path" d="M9.39 18.79C15.75 17.2 14.31 11.95 22.2 11.95C27.47 11.95 31.62 15.76 36.21 18.8L40.14 22.2C40.14 22.2 40.14 24.04 39.99 25.83L36.81 23.07C32.21 20.03 28.06 16.22 22.8 16.22C14.91 16.22 16.34 21.47 9.99 23.06C8.72 23.24 7.53 23.75 6.52 24.53C5.51 25.31 4.72 26.34 4.22 27.52C4.02 27.14 3.85 26.75 3.71 26.34C3.56 25.87 3.44 25.26 3.41 24.77C3.41 21.47 6.18 19.59 9.39 18.79Z" fill="#E3BFB3" fill-opacity="1.000000" fill-rule="nonzero"/>
		<path id="path" d="M3.41 24.77C3.44 25.26 3.53 25.75 3.69 26.22C4.17 27.73 5.2 29.16 6.54 30.03C7.19 30.52 7.82 31.04 8.43 31.6C8.76 31.89 9.08 32.16 9.39 32.45L10.11 36.04C10.15 36.23 10.25 36.41 10.41 36.53C10.56 36.66 10.75 36.72 10.95 36.72L13.44 36.72C13.57 36.72 13.69 36.69 13.81 36.64C13.92 36.58 14.02 36.5 14.1 36.4C14.18 36.3 14.24 36.19 14.27 36.06C14.3 35.94 14.3 35.81 14.28 35.68C13.95 34.34 13.75 32.98 13.66 31.6C13.75 30.73 13.92 29.87 14.17 29.04L19.64 29.04L23.66 36.28C23.73 36.41 23.84 36.53 23.97 36.6C24.1 36.68 24.25 36.72 24.41 36.72L25.24 36.72C25.38 36.72 25.52 36.69 25.64 36.63C25.76 36.57 25.86 36.48 25.94 36.37C26.02 36.26 26.07 36.13 26.09 35.99C26.11 35.86 26.09 35.72 26.05 35.6C25.35 33.77 24.92 31.84 24.77 29.89L24.77 29.69C24.77 28.83 25.07 27.99 25.62 27.33C26.67 26.89 27.75 26.54 28.85 26.29C30.51 25.89 32.21 25.69 33.92 25.69C34.2 26.29 34.57 26.84 35.02 27.33C35.87 28.18 38.43 29.89 39.29 29.04C40.14 28.18 40.14 22.2 40.14 22.2L36.21 18.8C31.62 15.76 27.47 11.95 22.2 11.95C14.31 11.95 15.75 17.2 9.39 18.79C6.18 19.59 3.41 21.47 3.41 24.77Z" fill="#000000" fill-opacity="0" fill-rule="nonzero"/>
		<path id="path" d="M3.69 26.22C4.17 27.73 5.2 29.16 6.54 30.03C7.19 30.52 7.82 31.04 8.43 31.6C8.76 31.89 9.08 32.16 9.39 32.45L10.11 36.04C10.15 36.23 10.25 36.41 10.41 36.53C10.56 36.66 10.75 36.72 10.95 36.72L13.44 36.72C13.57 36.72 13.69 36.69 13.81 36.64C13.92 36.58 14.02 36.5 14.1 36.4C14.18 36.3 14.24 36.19 14.27 36.06C14.3 35.94 14.3 35.81 14.28 35.68C13.95 34.34 13.75 32.98 13.66 31.6C13.75 30.73 13.92 29.87 14.17 29.04L19.64 29.04L23.66 36.28C23.73 36.41 23.84 36.53 23.97 36.6C24.1 36.68 24.25 36.72 24.41 36.72L25.24 36.72C25.38 36.72 25.52 36.69 25.64 36.63C25.76 36.57 25.86 36.48 25.94 36.37C26.02 36.26 26.07 36.13 26.09 35.99C26.11 35.86 26.09 35.72 26.05 35.6C25.35 33.77 24.92 31.84 24.77 29.89L24.77 29.69C24.77 28.83 25.07 27.99 25.62 27.33C26.67 26.89 27.75 26.54 28.85 26.29C30.51 25.89 32.21 25.69 33.92 25.69C34.2 26.29 34.57 26.84 35.02 27.33C35.87 28.18 38.43 29.89 39.29 29.04C40.14 28.18 40.14 22.2 40.14 22.2L36.21 18.8C31.62 15.76 27.47 11.95 22.2 11.95C14.31 11.95 15.75 17.2 9.39 18.79C6.18 19.59 3.41 21.47 3.41 24.77C3.44 25.26 3.53 25.75 3.69 26.22Z" stroke="#191919" stroke-opacity="1.000000" stroke-width="1.000000" stroke-linejoin="round"/>
		<path id="path" d="M15.85 24.78L15.87 24.76C15.87 24.48 15.65 24.27 15.37 24.27C15.09 24.27 14.87 24.49 14.87 24.77L14.89 24.79L15.85 24.78ZM13.72 28.88L13.69 28.9C13.62 29.16 13.76 29.44 14.03 29.52C14.3 29.6 14.58 29.45 14.65 29.18L14.64 29.15L13.72 28.88Z" fill="#000000" fill-opacity="0" fill-rule="nonzero"/>
		<path id="path" d="M15.37 24.77C15.37 25.63 15.18 26.49 14.82 27.28C14.57 27.85 14.35 28.44 14.17 29.04" stroke="#191919" stroke-opacity="1.000000" stroke-width="1.000000" stroke-linejoin="round" stroke-linecap="round"/>
		<path id="path" d="M33.48 25.88L33.47 25.9C33.59 26.16 33.88 26.26 34.13 26.14C34.39 26.03 34.49 25.73 34.37 25.48L34.35 25.47L33.48 25.88ZM33.79 23.07L33.81 23.05C33.8 22.77 33.58 22.55 33.3 22.56C33.02 22.56 32.8 22.79 32.81 23.07L32.83 23.09L33.79 23.07Z" fill="#000000" fill-opacity="0" fill-rule="nonzero"/>
		<path id="path" d="M33.92 25.69C33.54 24.87 33.33 23.97 33.31 23.06" stroke="#191919" stroke-opacity="1.000000" stroke-width="1.000000" stroke-linejoin="round" stroke-linecap="round"/>
		<path id="path" d="M24.77 29.69L24.77 29.89C25.99 30.28 27.14 30.85 28.18 31.6C28.56 31.97 28.84 32.44 28.99 32.95C29.01 33.07 29.07 33.18 29.14 33.27C29.22 33.37 29.32 33.44 29.43 33.5L30.06 33.82C30.25 33.91 30.47 33.93 30.68 33.87C30.88 33.81 31.06 33.68 31.17 33.5C31.76 32.66 32.19 31.73 32.45 30.75C32.45 29.89 29.04 26.47 29.04 26.47L28.85 26.29C27.75 26.54 26.67 26.89 25.62 27.33C25.07 27.99 24.77 28.83 24.77 29.69Z" fill="#C77F67" fill-opacity="1.000000" fill-rule="nonzero"/>
		<path id="path" d="M24.77 29.89C25.99 30.28 27.14 30.85 28.18 31.6C28.56 31.97 28.84 32.44 28.99 32.95C29.01 33.07 29.07 33.18 29.14 33.27C29.22 33.37 29.32 33.44 29.43 33.5L30.06 33.82C30.25 33.91 30.47 33.93 30.68 33.87C30.88 33.81 31.06 33.68 31.17 33.5C31.76 32.66 32.19 31.73 32.45 30.75C32.45 29.89 29.04 26.47 29.04 26.47L28.85 26.29C27.75 26.54 26.67 26.89 25.62 27.33C25.07 27.99 24.77 28.83 24.77 29.69L24.77 29.89Z" stroke="#191919" stroke-opacity="1.000000" stroke-width="1.000000" stroke-linejoin="round"/>
		<path id="path" d="M0.85 31.6L1.58 36.01C1.62 36.21 1.72 36.39 1.87 36.52C2.02 36.65 2.22 36.72 2.42 36.72L3.96 36.72C4.08 36.73 4.21 36.7 4.33 36.65C4.44 36.6 4.54 36.52 4.62 36.42C4.71 36.33 4.77 36.21 4.8 36.09C4.83 35.97 4.84 35.84 4.81 35.72C4.65 34.9 4.76 34.05 5.12 33.31C5.49 32.77 5.99 32.34 6.56 32.04C7.14 31.74 7.78 31.59 8.43 31.6C7.82 31.04 7.19 30.52 6.54 30.03C5.2 29.16 4.21 27.85 3.72 26.34C3.92 27.25 3.81 28.2 3.41 29.04C3.17 29.61 2.83 30.13 2.39 30.57C1.95 31.01 1.42 31.36 0.85 31.6Z" fill="#C77F67" fill-opacity="1.000000" fill-rule="nonzero"/>
		<path id="path" d="M1.58 36.01C1.62 36.21 1.72 36.39 1.87 36.52C2.02 36.65 2.22 36.72 2.42 36.72L3.96 36.72C4.08 36.73 4.21 36.7 4.33 36.65C4.44 36.6 4.54 36.52 4.62 36.42C4.71 36.33 4.77 36.21 4.8 36.09C4.83 35.97 4.84 35.84 4.81 35.72C4.65 34.9 4.76 34.05 5.12 33.31C5.49 32.77 5.99 32.34 6.56 32.04C7.14 31.74 7.78 31.59 8.43 31.6C7.82 31.04 7.19 30.52 6.54 30.03C5.2 29.16 4.21 27.85 3.72 26.34C3.92 27.25 3.81 28.2 3.41 29.04C3.17 29.61 2.83 30.13 2.39 30.57C1.95 31.01 1.42 31.36 0.85 31.6L1.58 36.01Z" stroke="#191919" stroke-opacity="1.000000" stroke-width="1.000000" stroke-linejoin="round"/>
		<path id="path" d="M11.1 9.39C12.3 9.46 11.59 7.06 11.1 5.97C10.86 5.49 10.5 5.07 10.05 4.77C9.6 4.47 9.08 4.3 8.54 4.27C8.29 4.8 8.17 5.38 8.17 5.97C8.17 6.56 8.29 7.15 8.54 7.68C8.77 8.17 9.13 8.59 9.59 8.89C10.04 9.19 10.56 9.36 11.1 9.39Z" fill="#C77F67" fill-opacity="1.000000" fill-rule="nonzero"/>
		<path id="path" d="M11.1 5.97C10.86 5.49 10.5 5.07 10.05 4.77C9.6 4.47 9.08 4.3 8.54 4.27C8.29 4.8 8.17 5.38 8.17 5.97C8.17 6.56 8.29 7.15 8.54 7.68C8.77 8.17 9.13 8.59 9.59 8.89C10.04 9.19 10.56 9.36 11.1 9.39C12.3 9.46 11.59 7.06 11.1 5.97Z" stroke="#191919" stroke-opacity="1.000000" stroke-width="1.000000" stroke-linejoin="round"/>
		<path id="path" d="" fill="#000000" fill-opacity="0" fill-rule="nonzero"/>
		<path id="path" d="M4.1 22.15C3.4 21.9 2.8 21.44 2.38 20.84C1.95 20.24 1.72 19.52 1.7 18.79C1.7 16.22 4.27 15.37 5.97 15.37C6.97 15.4 7.96 15.18 8.86 14.73C9.75 14.28 10.52 13.62 11.1 12.81C11.34 12.27 11.47 11.69 11.47 11.1C11.47 10.51 11.34 9.93 11.1 9.39" stroke="#191919" stroke-opacity="1.000000" stroke-width="0.000000" stroke-linejoin="round" stroke-linecap="round"/>
		<path id="path" d="M36.19 18.8C36.26 21.79 37.46 24.58 38.21 24.65C39.41 24.75 40.06 23.09 40.12 22.24C39.78 20.75 39.34 19.28 38.79 17.85C38.65 16.96 38.69 16.06 38.91 15.19C39.13 14.33 39.52 13.51 40.07 12.81C39.07 13.22 38.2 13.87 37.52 14.72C36.85 15.56 36.41 16.56 36.23 17.62C36.19 18.02 36.18 18.41 36.19 18.8Z" fill="#E3E3E3" fill-opacity="1.000000" fill-rule="nonzero"/>
		<path id="path" d="M38.21 24.65C39.41 24.75 40.06 23.09 40.12 22.24C39.78 20.75 39.34 19.28 38.79 17.85C38.65 16.96 38.69 16.06 38.91 15.19C39.13 14.33 39.52 13.51 40.07 12.81C39.07 13.22 38.2 13.87 37.52 14.72C36.85 15.56 36.41 16.56 36.23 17.62C36.19 18.02 36.18 18.41 36.19 18.8C36.26 21.79 37.46 24.58 38.21 24.65Z" stroke="#191919" stroke-opacity="1.000000" stroke-width="1.000000" stroke-linejoin="round"/>
	</g>
	<g clip-path="url(#clip5_12)">
		<path id="path" d="M258.47 15.27C261.16 15 266.35 14.82 266.35 14.82L278.31 14.82C279.91 14.95 281.41 15.68 282.5 16.86C283.6 18.04 284.21 19.58 284.23 21.19C284.23 31.61 283.43 39.59 283.43 39.59L280.01 39.59L278.31 31.9C278.07 31.85 277.85 31.79 277.62 31.7C277.12 32.38 276.44 32.92 275.66 33.25C274.88 33.59 274.03 33.71 273.18 33.61C271.97 33.63 270.78 33.32 269.73 32.72C268.68 32.12 267.81 31.24 267.2 30.19L263.79 30.19L262.08 39.59L258.66 39.59L258.66 31.9C257.86 31.75 257.1 31.43 256.43 30.96C255.76 30.5 255.19 29.9 254.77 29.21L252.29 24.75C252.29 24.75 255.78 15.54 258.47 15.27Z" fill="#E3E3E3" fill-opacity="1.000000" fill-rule="nonzero"/>
		<path id="path" d="M278.33 21.22L264.07 21.22C264.07 21.22 257.88 21.44 254.67 21.76C254.12 21.87 253.61 22.14 253.21 22.54C254.43 19.79 256.63 15.45 258.47 15.27C261.16 15 266.35 14.82 266.35 14.82L278.31 14.82C279.91 14.95 281.41 15.68 282.5 16.86C283.6 18.04 284.21 19.58 284.23 21.19C284.23 22.45 284.22 23.67 284.2 24.84C283.6 23.79 282.75 22.91 281.73 22.28C280.7 21.65 279.53 21.29 278.33 21.22Z" fill="#FFFFFF" fill-opacity="1.000000" fill-rule="nonzero"/>
		<path id="path" d="" fill="#FFFFFF" fill-opacity="1.000000" fill-rule="nonzero"/>
		<path id="path" d="M259.53 14.73C259.38 14.5 259.17 14.3 258.92 14.17C258.67 14.03 258.4 13.96 258.11 13.96L252.37 13.96C252.09 13.96 251.81 14.03 251.57 14.17C251.32 14.3 251.11 14.5 250.95 14.73C246.61 14.66 245.95 19.94 247.56 19.94C248.57 19.85 249.53 19.45 250.31 18.8L252.29 24.75C252.41 25.09 252.62 25.39 252.92 25.6C253.21 25.81 253.56 25.92 253.91 25.92L256.58 25.92C256.93 25.92 257.28 25.81 257.57 25.6C257.87 25.39 258.08 25.09 258.2 24.75L260.18 18.8C260.96 19.46 261.92 19.85 262.93 19.94C264.54 19.94 263.88 14.66 259.53 14.73Z" fill="#FFFFFF" fill-opacity="1.000000" fill-rule="nonzero"/>
		<path id="path" d="M258.92 14.17C258.67 14.03 258.4 13.96 258.11 13.96L252.37 13.96C252.09 13.96 251.81 14.03 251.57 14.17C251.32 14.3 251.11 14.5 250.95 14.73C246.61 14.66 245.95 19.94 247.56 19.94C248.57 19.85 249.53 19.45 250.31 18.8L252.29 24.75C252.41 25.09 252.62 25.39 252.92 25.6C253.21 25.81 253.56 25.92 253.91 25.92L256.58 25.92C256.93 25.92 257.28 25.81 257.57 25.6C257.87 25.39 258.08 25.09 258.2 24.75L260.18 18.8C260.96 19.46 261.92 19.85 262.93 19.94C264.54 19.94 263.88 14.66 259.53 14.73C259.38 14.5 259.17 14.3 258.92 14.17Z" stroke="#191919" stroke-opacity="1.000000" stroke-width="1.000000" stroke-linejoin="round"/>
		<path id="path" d="M251.44 14.33L251.43 14.35C251.6 14.58 251.91 14.62 252.13 14.45C252.36 14.28 252.4 13.97 252.23 13.75L252.2 13.74L251.44 14.33ZM251.45 11.43L251.47 11.41C251.48 11.13 251.27 10.9 250.99 10.89C250.71 10.89 250.48 11.1 250.47 11.38L250.49 11.4L251.45 11.43Z" fill="#000000" fill-opacity="0" fill-rule="nonzero"/>
		<path id="path" d="M251.83 14.05C251.25 13.29 250.94 12.35 250.97 11.39" stroke="#191919" stroke-opacity="1.000000" stroke-width="1.000000" stroke-linejoin="round" stroke-linecap="round"/>
		<path id="path" d="M258.29 13.74L258.27 13.74C258.1 13.96 258.13 14.27 258.36 14.44C258.58 14.62 258.89 14.58 259.06 14.35L259.05 14.33L258.29 13.74ZM260 11.41L260.02 11.39C260.01 11.11 259.78 10.9 259.5 10.9C259.22 10.91 259.01 11.14 259.02 11.42L259.04 11.44L260 11.41Z" fill="#000000" fill-opacity="0" fill-rule="nonzero"/>
		<path id="path" d="M258.66 14.05C259.25 13.29 259.55 12.36 259.52 11.4" stroke="#191919" stroke-opacity="1.000000" stroke-width="1.000000" stroke-linejoin="round" stroke-linecap="round"/>
		<path id="path" d="M258.55 32.37L258.57 32.39C258.84 32.45 259.1 32.27 259.15 32C259.21 31.72 259.03 31.46 258.76 31.41L258.73 31.43L258.55 32.37ZM255.19 28.97L255.19 28.95C255.05 28.71 254.74 28.64 254.51 28.78C254.27 28.93 254.19 29.23 254.34 29.47L254.37 29.48L255.19 28.97Z" fill="#000000" fill-opacity="0" fill-rule="nonzero"/>
		<path id="path" d="M258.66 31.9C257.86 31.75 257.1 31.43 256.43 30.96C255.76 30.5 255.19 29.9 254.77 29.21" stroke="#191919" stroke-opacity="1.000000" stroke-width="1.000000" stroke-linejoin="round" stroke-linecap="round"/>
		<path id="path" d="M277.62 31.7C277.12 32.39 276.44 32.92 275.66 33.25C274.88 33.59 274.03 33.71 273.18 33.61C271.97 33.63 270.78 33.32 269.73 32.72C268.68 32.12 267.8 31.24 267.2 30.19C268.48 29.62 269.87 29.33 271.27 29.34C272.67 29.34 274.06 29.65 275.33 30.24C275.98 30.89 276.76 31.39 277.62 31.7Z" fill="#FF808C" fill-opacity="1.000000" fill-rule="nonzero"/>
		<path id="path" d="M259.14 29.36L259.16 29.34C259.16 29.06 258.94 28.84 258.66 28.84C258.38 28.84 258.16 29.06 258.16 29.34L258.18 29.36L259.14 29.36ZM278 32.01L278.03 32.01C278.19 31.78 278.15 31.47 277.92 31.31C277.7 31.14 277.39 31.18 277.22 31.41L277.23 31.44L278 32.01Z" fill="#000000" fill-opacity="0" fill-rule="nonzero"/>
		<path id="path" d="M258.66 29.34L258.66 39.59L262.08 39.59L263.79 30.19L267.2 30.19C267.81 31.24 268.68 32.12 269.73 32.72C270.78 33.32 271.97 33.63 273.18 33.61C274.03 33.71 274.88 33.59 275.66 33.25C276.44 32.92 277.12 32.39 277.62 31.71" stroke="#191919" stroke-opacity="1.000000" stroke-width="1.000000" stroke-linejoin="round" stroke-linecap="round"/>
		<path id="path" d="M271.96 33.64L271.99 33.63C272.1 33.38 271.99 33.09 271.74 32.97C271.48 32.85 271.19 32.96 271.08 33.22L271.09 33.25L271.96 33.64ZM270.25 35.1L270.22 35.11C270.1 35.37 270.21 35.66 270.47 35.77C270.72 35.89 271.01 35.78 271.13 35.52L271.12 35.5L270.25 35.1Z" fill="#000000" fill-opacity="0" fill-rule="nonzero"/>
		<path id="path" d="M271.53 33.43L270.68 35.32" stroke="#191919" stroke-opacity="1.000000" stroke-width="1.000000" stroke-linejoin="round" stroke-linecap="round"/>
		<path id="path" d="M274.51 35.51L274.5 35.54C274.62 35.79 274.92 35.89 275.17 35.77C275.42 35.64 275.52 35.35 275.39 35.1L275.37 35.09L274.51 35.51ZM274.52 33.37L274.53 33.34C274.41 33.09 274.12 32.99 273.86 33.12C273.61 33.24 273.51 33.53 273.64 33.79L273.66 33.8L274.52 33.37Z" fill="#000000" fill-opacity="0" fill-rule="nonzero"/>
		<path id="path" d="M274.95 35.32L274.09 33.57" stroke="#191919" stroke-opacity="1.000000" stroke-width="1.000000" stroke-linejoin="round" stroke-linecap="round"/>
		<path id="path" d="M284.23 21.19C284.23 22.53 284.22 23.82 284.2 25.07L282.2 25.07C281.82 25.07 281.45 24.94 281.15 24.71C280.85 24.47 280.64 24.14 280.54 23.77L280.02 21.65L277.81 20.33C277.21 19.96 276.73 19.42 276.44 18.78C276.16 18.14 276.08 17.42 276.22 16.73L276.6 14.82L278.31 14.82C279.91 14.95 281.41 15.68 282.5 16.86C283.6 18.04 284.21 19.58 284.23 21.19Z" fill="#808080" fill-opacity="1.000000" fill-rule="nonzero"/>
		<path id="path" d="M284.2 25.07L282.2 25.07C281.82 25.07 281.45 24.94 281.15 24.71C280.85 24.47 280.64 24.14 280.54 23.77L280.02 21.65L277.81 20.33C277.21 19.96 276.73 19.42 276.44 18.78C276.16 18.14 276.08 17.42 276.22 16.73L276.6 14.82L278.31 14.82C279.91 14.95 281.41 15.68 282.5 16.86C283.6 18.04 284.21 19.58 284.23 21.19C284.23 22.53 284.22 23.82 284.2 25.07Z" stroke="#191919" stroke-opacity="1.000000" stroke-width="1.000000" stroke-linejoin="round"/>
		<path id="path" d="M266.37 14.34L266.35 14.32C266.07 14.32 265.85 14.54 265.85 14.82C265.85 15.1 266.07 15.32 266.35 15.32L266.37 15.3L266.37 14.34ZM273.66 24.23L273.68 24.21C273.68 23.93 273.46 23.71 273.18 23.71C272.9 23.71 272.68 23.93 272.68 24.21L272.7 24.23L273.66 24.23Z" fill="#000000" fill-opacity="0" fill-rule="nonzero"/>
		<path id="path" d="M266.35 14.82L278.31 14.82C279.91 14.95 281.41 15.68 282.5 16.86C283.6 18.04 284.21 19.58 284.23 21.19C284.23 31.61 283.43 39.59 283.43 39.59L280.01 39.59L278.31 31.9C278.31 31.9 273.18 31.05 273.18 24.21" stroke="#191919" stroke-opacity="1.000000" stroke-width="1.000000" stroke-linejoin="round" stroke-linecap="round"/>
		<path id="path" d="M257.4 16.9L257.38 16.88C257.1 16.88 256.88 17.1 256.88 17.38C256.88 17.66 257.1 17.88 257.38 17.88L257.4 17.86L257.4 16.9ZM257.33 17.79L257.31 17.81C257.31 18.09 257.53 18.31 257.81 18.31C258.09 18.31 258.31 18.09 258.31 17.81L258.29 17.79L257.33 17.79Z" fill="#000000" fill-opacity="0" fill-rule="nonzero"/>
		<path id="path" d="M257.38 17.38C257.49 17.38 257.6 17.43 257.68 17.51C257.76 17.59 257.81 17.69 257.81 17.81" stroke="#191919" stroke-opacity="1.000000" stroke-width="1.000000" stroke-linejoin="round" stroke-linecap="round"/>
		<path id="path" d="M256.47 17.79L256.45 17.81C256.45 18.09 256.67 18.31 256.95 18.31C257.23 18.31 257.45 18.09 257.45 17.81L257.43 17.79L256.47 17.79ZM257.36 17.86L257.38 17.88C257.66 17.88 257.88 17.66 257.88 17.38C257.88 17.1 257.66 16.88 257.38 16.88L257.36 16.9L257.36 17.86Z" fill="#000000" fill-opacity="0" fill-rule="nonzero"/>
		<path id="path" d="M256.95 17.81C256.95 17.69 257 17.59 257.08 17.51C257.16 17.43 257.27 17.38 257.38 17.38" stroke="#191919" stroke-opacity="1.000000" stroke-width="1.000000" stroke-linejoin="round" stroke-linecap="round"/>
		<path id="path" d="M257.36 18.71L257.38 18.73C257.66 18.74 257.88 18.52 257.88 18.24C257.88 17.96 257.66 17.74 257.38 17.73L257.36 17.75L257.36 18.71ZM257.43 17.83L257.45 17.81C257.45 17.53 257.23 17.31 256.95 17.31C256.67 17.31 256.45 17.53 256.45 17.81L256.47 17.83L257.43 17.83Z" fill="#000000" fill-opacity="0" fill-rule="nonzero"/>
		<path id="path" d="M257.38 18.23C257.27 18.23 257.16 18.19 257.08 18.11C257 18.03 256.95 17.92 256.95 17.81" stroke="#191919" stroke-opacity="1.000000" stroke-width="1.000000" stroke-linejoin="round" stroke-linecap="round"/>
		<path id="path" d="M258.29 17.83L258.31 17.81C258.31 17.53 258.09 17.31 257.81 17.31C257.53 17.31 257.31 17.53 257.31 17.81L257.33 17.83L258.29 17.83ZM257.4 17.75L257.38 17.73C257.1 17.73 256.88 17.95 256.88 18.23C256.88 18.51 257.1 18.73 257.38 18.73L257.4 18.71L257.4 17.75Z" fill="#000000" fill-opacity="0" fill-rule="nonzero"/>
		<path id="path" d="M257.81 17.81C257.81 17.92 257.76 18.03 257.68 18.11C257.6 18.19 257.49 18.23 257.38 18.23" stroke="#191919" stroke-opacity="1.000000" stroke-width="1.000000" stroke-linejoin="round" stroke-linecap="round"/>
		<path id="path" d="M253.31 16.94L253.3 16.92C253.04 16.81 252.75 16.93 252.65 17.19C252.54 17.45 252.66 17.74 252.92 17.84L252.94 17.83L253.31 16.94ZM253.06 17.79L253.04 17.81C253.04 18.09 253.26 18.31 253.54 18.31C253.82 18.31 254.04 18.09 254.04 17.81L254.02 17.79L253.06 17.79Z" fill="#000000" fill-opacity="0" fill-rule="nonzero"/>
		<path id="path" d="M253.11 17.38C253.16 17.4 253.37 17.47 253.41 17.5C253.43 17.56 253.54 17.75 253.54 17.81" stroke="#191919" stroke-opacity="1.000000" stroke-width="1.000000" stroke-linejoin="round" stroke-linecap="round"/>
		<path id="path" d="M252.2 17.79L252.18 17.81C252.18 18.09 252.4 18.31 252.68 18.31C252.96 18.31 253.18 18.09 253.18 17.81L253.16 17.79L252.2 17.79ZM253.09 17.86L253.11 17.88C253.39 17.88 253.61 17.66 253.61 17.38C253.61 17.1 253.39 16.88 253.11 16.88L253.09 16.9L253.09 17.86Z" fill="#000000" fill-opacity="0" fill-rule="nonzero"/>
		<path id="path" d="M252.68 17.81C252.68 17.69 252.73 17.59 252.81 17.51C252.89 17.43 253 17.38 253.11 17.38" stroke="#191919" stroke-opacity="1.000000" stroke-width="1.000000" stroke-linejoin="round" stroke-linecap="round"/>
		<path id="path" d="M253.09 18.71L253.11 18.73C253.39 18.73 253.61 18.51 253.61 18.23C253.61 17.95 253.39 17.73 253.11 17.73L253.09 17.75L253.09 18.71ZM253.16 17.83L253.18 17.81C253.18 17.53 252.96 17.31 252.68 17.31C252.4 17.31 252.18 17.53 252.18 17.81L252.2 17.83L253.16 17.83Z" fill="#000000" fill-opacity="0" fill-rule="nonzero"/>
		<path id="path" d="M253.11 18.23C253 18.23 252.89 18.19 252.81 18.11C252.73 18.03 252.68 17.92 252.68 17.81" stroke="#191919" stroke-opacity="1.000000" stroke-width="1.000000" stroke-linejoin="round" stroke-linecap="round"/>
		<path id="path" d="M254.02 17.83L254.04 17.81C254.04 17.53 253.82 17.31 253.54 17.31C253.26 17.31 253.04 17.53 253.04 17.81L253.06 17.83L254.02 17.83ZM253.13 17.75L253.11 17.73C252.83 17.73 252.61 17.95 252.61 18.23C252.61 18.51 252.83 18.73 253.11 18.73L253.13 18.71L253.13 17.75Z" fill="#000000" fill-opacity="0" fill-rule="nonzero"/>
		<path id="path" d="M253.54 17.81C253.54 17.92 253.49 18.03 253.41 18.11C253.33 18.19 253.22 18.23 253.11 18.23" stroke="#191919" stroke-opacity="1.000000" stroke-width="1.000000" stroke-linejoin="round" stroke-linecap="round"/>
	</g>
	<path id="Bulls and Cows" d="M79.39 36.5Q79.62 36.64 80.07 36.64Q80.44 36.64 80.81 36.61Q81.19 36.58 81.35 36.58Q82.58 36.61 83.93 36.61L84.76 36.58L85.74 36.61Q85.74 35.59 85.69 34.55Q85.64 33.51 85.64 32.46Q85.64 30.62 85.74 28.82L85.81 27.77Q85.98 25.22 86.04 23.08Q86.32 16.45 86.45 14.66Q86.59 12.88 86.83 12.06Q86.83 12.04 86.83 12.03Q86.8 11.95 86.62 11.92Q86.25 11.86 84.04 11.76Q82.31 11.65 81.63 11.65Q81.15 11.65 81.08 11.72L80.98 11.82L80.95 11.89Q80.64 12.4 80.54 15.09Q80.47 16.58 80.41 17.13Q80.13 19.58 80.1 20.26Q80.1 20.36 80.08 20.41Q80.07 20.46 80.04 20.6Q80.03 20.73 80.03 20.93Q80.03 21.31 79.98 21.41Q79.93 21.51 79.93 21.78Q79.93 22.5 79.86 22.81Q79.83 22.87 79.83 23.49Q79.83 25.05 79.49 27.84Q79.35 29.33 79.35 30.76Q79.35 31.81 79.42 33.04Q79.31 33.95 79.31 35.65Q79.31 36.43 79.39 36.5ZM87.34 36.5Q87.57 36.64 88.02 36.64Q88.4 36.64 88.77 36.61Q89.14 36.58 89.31 36.58Q90.54 36.61 91.89 36.61L92.71 36.58L93.7 36.61Q93.7 35.59 93.64 34.55Q93.59 33.51 93.59 32.46Q93.59 30.62 93.7 28.82L93.77 27.77Q93.93 25.22 94 23.08Q94.27 16.45 94.41 14.66Q94.55 12.88 94.79 12.06Q94.79 12.04 94.78 12.03Q94.76 11.95 94.58 11.92Q94.21 11.86 92 11.76Q90.26 11.65 89.58 11.65Q89.11 11.65 89.04 11.72L88.94 11.82L88.9 11.89Q88.6 12.4 88.5 15.09Q88.43 16.58 88.36 17.13Q88.09 19.58 88.06 20.26Q88.06 20.36 88.04 20.41Q88.02 20.46 88 20.6Q87.98 20.73 87.98 20.93Q87.98 21.31 87.93 21.41Q87.88 21.51 87.88 21.78Q87.88 22.5 87.82 22.81Q87.78 22.87 87.78 23.49Q87.78 25.05 87.44 27.84Q87.31 29.33 87.31 30.76Q87.31 31.81 87.38 33.04Q87.27 33.95 87.27 35.65Q87.27 36.43 87.34 36.5ZM46.84 36.13Q47.08 36.16 47.73 36.16Q50 36.16 53.54 35.96Q54.97 35.86 55.37 35.79Q55.47 35.77 55.57 35.75Q57.68 35.31 59.72 34.47Q60.82 34.01 61.74 33.31Q62.6 32.66 63.3 31.81Q63.47 31.61 63.5 31.48Q63.54 31.34 63.74 31.13L63.78 31.06L63.74 30.9Q63.74 30.79 63.98 30.59Q64.12 30.48 64.12 30.45L64.08 30.42Q64.05 30.38 64.05 30.35Q64.05 30.28 64.29 30.01L64.36 29.91L64.32 29.81Q64.32 29.8 64.32 29.79Q64.33 29.69 64.42 29.6Q64.8 29.16 64.8 27.29Q64.8 26.57 64.73 26.23Q64.36 24.61 63.59 23.68Q62.83 22.74 61.26 22.12Q60.85 21.95 60.6 21.83Q60.35 21.72 60.12 21.63Q59.9 21.54 59.59 21.48Q59.29 21.41 58.7 21.31Q58.1 21.2 58.1 21.1Q58.1 20.97 58.44 20.7Q60.06 19.19 60.27 17.51Q60.31 17.25 60.31 16.99Q60.31 15.8 59.56 14.56Q58.88 13.43 57.91 13.05Q57.81 13.01 57.71 12.98Q56.6 12.64 55.11 12.6Q47.6 12.6 46.95 13.38Q46.87 13.52 46.87 14Q46.87 14.58 46.98 15.9L47.02 16.79Q46.98 17.81 46.92 18.69Q46.84 19.78 46.84 20.97L46.87 22.09Q46.95 23.38 46.95 25.49Q46.95 26.65 46.98 26.73Q47.02 26.81 47.05 26.81L47.02 26.88Q46.95 26.95 46.86 27.14Q46.8 27.28 46.78 27.43Q46.78 27.48 46.78 27.53L46.81 28.08L46.78 28.42Q46.78 28.62 46.79 28.65Q46.81 28.68 46.81 28.76Q46.81 28.96 46.73 29.33Q46.64 29.7 46.64 30.79Q46.64 31.4 46.68 31.91L46.74 33.99Q46.78 36.03 46.84 36.13ZM155.37 37.08Q155.51 37.12 155.68 37.12Q155.95 37.12 156.12 36.98L156.67 36.95Q158.03 36.58 158.82 35.78Q159.62 34.97 160.27 33.95Q160.67 33.27 161.22 32.59Q161.29 33.04 161.29 33.55Q161.32 34.63 161.61 35.57Q161.72 35.91 161.94 36.14Q162.32 36.54 163.06 36.61L167.58 36.4Q167.59 36.4 167.6 36.39Q167.99 36.21 167.99 35.21Q167.99 34.43 167.89 33.82Q167.89 30.82 167.99 28.79Q167.99 26 168.05 24.47L168.19 21.78Q168.3 19.37 168.46 17.36L168.8 13.25Q168.8 13.24 168.79 13.23Q168.67 12.94 167.89 12.94L167 12.94Q166.29 12.91 165.61 12.84Q165.28 12.8 164.95 12.78Q164.4 12.74 163.84 12.74L163.16 12.77Q162.96 12.77 162.75 12.91Q162.62 13.14 162.51 14.44L162.44 15.39L162.17 17.84Q162.14 18.65 162 19.37Q162 19.4 161.99 19.42Q161.97 19.43 161.94 19.43L161.76 19.27Q161.44 18.95 161.07 18.7Q161.01 18.66 160.95 18.62Q160.27 18.25 159.96 18.25Q159.96 18.25 159.96 18.26Q159.95 18.28 159.89 18.28Q159.86 18.28 159.83 18.26Q159.8 18.25 159.74 18.18Q159.7 18.13 159.65 18.12Q159.64 18.12 159.62 18.12L159.49 18.25Q159.48 18.25 159.48 18.25Q159.46 18.23 159.46 18.18L159.46 18.15Q159.46 18.14 159.45 18.13Q159.43 18.07 159.25 18.07Q159.15 18.12 158.74 18.15Q158.53 18.18 158.42 18.18Q158.33 18.18 158.31 18.22Q158.3 18.23 158.3 18.25L158.3 18.31Q158.16 18.31 158.06 18.28Q157.96 18.28 157.92 18.3Q157.89 18.31 157.84 18.35Q157.79 18.38 157.46 18.46Q157.14 18.52 155.95 19.24Q155.51 19.5 155.35 19.68Q155.21 19.84 155.06 19.98Q154.39 20.73 154.15 21.14Q154.01 21.24 154.01 21.27L154.01 21.31L153.94 21.31Q153.91 21.41 153.88 21.55Q153.84 21.68 153.79 21.7Q153.74 21.72 153.69 21.73Q153.64 21.75 153.57 21.95L153.26 22.5Q153.03 22.84 152.76 23.38Q151.9 25.18 151.58 26.76Q151.26 28.34 151.26 30.04Q151.26 31.2 151.36 32.53Q151.36 32.97 151.49 33.41Q151.63 33.61 151.69 33.82Q151.72 33.95 151.74 34.08Q151.77 34.43 152.09 34.98Q152.42 35.52 152.82 35.9Q153.06 36.13 153.06 36.2L153.1 36.27L153.26 36.27L153.27 36.27Q153.41 36.44 153.6 36.55Q153.81 36.68 153.94 36.68Q154 36.68 154.04 36.7Q154.08 36.75 154.08 36.84L154.08 36.85Q154.1 37.02 155.14 37.08L155.37 37.08ZM186.04 36.3Q187.33 36.5 188.46 36.5Q191.24 36.5 194.68 35.25Q195.52 34.88 195.59 34.39Q195.6 34.34 195.6 34.29Q195.6 33.92 195.36 33.41Q195.12 32.9 194.95 32.12Q194.07 28.02 193.09 28Q193.09 28 193.08 28Q192.78 28.04 191.45 28.82Q189.85 29.74 188.59 29.74Q187.88 29.74 187.42 29.39Q187.12 29.17 186.92 28.79Q186.45 27.84 186.35 26.1Q186.37 25.27 186.54 24.47Q186.7 23.7 187.01 22.95Q187.27 22.33 187.65 21.79Q188.19 21.02 188.97 20.42Q189.61 20.05 190.04 19.95Q190.46 19.84 190.94 19.78Q191.95 19.64 192.1 19.48Q192.18 19.4 192.21 19.3Q192.26 19.19 192.26 19.06Q192.26 18.79 192.19 18.38Q192.06 15.9 192.06 14.71Q192.06 13.82 191.89 13.14Q191.69 12.91 191.01 12.91Q190.15 12.91 189 13.18Q185.9 13.96 184.31 15.53Q183.29 16.51 182.47 18.07Q182.46 18.12 182.42 18.13Q182.4 18.15 182.37 18.15Q182.3 18.15 182.13 18.45Q180.67 21.27 180.33 26.47Q180.33 26.91 180.38 27.1Q180.43 27.29 180.57 27.56Q180.53 27.56 180.45 27.58Q180.45 27.58 180.44 27.58Q180.37 27.6 180.37 27.87Q180.4 28.28 180.47 28.6Q180.53 28.92 180.53 29.4Q180.6 29.43 180.71 29.43L180.84 29.4L180.67 29.7Q180.57 29.81 180.57 30.14Q180.57 30.31 180.63 30.34Q180.65 30.35 180.67 30.35L180.84 30.28Q180.84 30.32 180.81 30.4Q180.77 30.48 180.77 30.76Q180.77 31.2 181.39 32.33Q181.41 32.36 181.43 32.41Q181.45 32.47 181.45 32.55Q181.45 32.67 181.47 32.73Q181.47 32.74 181.48 32.75Q181.51 32.8 181.62 32.8Q181.62 33.01 181.69 33.11Q181.86 33.31 181.98 33.56Q182.1 33.82 182.37 34.13Q182.64 34.43 182.71 34.6Q182.91 34.91 183.42 35.25Q183.53 35.31 183.55 35.36Q183.56 35.41 183.79 35.51Q184.04 35.59 184.15 35.67Q184.28 35.75 184.82 35.86Q185.06 35.93 185.19 36.03Q185.46 36.2 186.04 36.3ZM53.47 19.95Q53.23 20.12 53.13 20.12Q53.13 20.12 53.12 20.11Q53 20.08 53 19.61L53 17.91Q53 17.13 53.31 16.98L53.31 16.98Q53.62 16.82 54.56 16.82Q55.45 16.85 55.59 17.19Q55.62 17.25 55.62 17.33Q55.62 17.73 55.24 18.3Q54.87 18.86 54.7 19.37L54.43 19.43Q53.85 19.64 53.47 19.95ZM139.22 36.47L139.97 36.5Q140.06 36.5 140.09 36.46Q140.11 36.43 140.11 36.4Q140.11 36.16 139.97 35.25Q139.84 34.33 139.84 33.21Q139.84 31.91 140 31.24Q140.24 30.32 141.23 28.08Q141.47 27.4 141.84 26.68Q142.22 25.97 142.53 25.45L142.69 25.11Q142.9 24.74 143.13 24.46Q143.37 24.17 143.44 24.17Q143.54 24.2 143.61 24.74L143.91 26.57Q144.36 29.77 144.36 33.04L144.36 33.92L144.39 35.96Q144.39 36.01 144.41 36.05Q144.5 36.24 144.97 36.24Q145.11 36.24 145.17 36.2Q145.58 36.2 145.65 36.24Q145.68 36.25 145.71 36.27Q145.74 36.3 145.77 36.34Q145.82 36.4 146.02 36.4Q146.33 36.4 146.6 36.34Q147.18 36.24 147.49 36.24L147.96 36.27Q148.44 36.34 149.08 36.34Q150.38 36.34 150.61 36Q150.75 35.69 150.75 34.94Q150.75 33.45 150.27 29.88L150.17 29.2L150.07 28.04Q149.7 23.99 148.88 21.14Q148.71 20.52 147.75 18.79Q147.38 18.18 147.22 17.97Q146.64 17.43 145.97 17.26Q145.68 17.19 145.38 17.19Q144.7 17.19 143.85 17.43Q143.24 17.6 142.9 17.77Q142.25 18.12 141.4 19.07Q140.55 20.02 139.84 21.2Q139.56 21.64 139.53 21.64Q139.5 21.64 139.5 17.84L137.52 18.04Q135.31 18.35 133.64 18.65Q133.51 22.19 133.51 32.93Q133.51 36 133.61 36.09Q134.16 36.47 136.54 36.47Q137.18 36.47 137.79 36.43Q139.02 36.43 139.22 36.47ZM119.13 36.43Q120.18 37.18 122.02 37.18Q122.9 37.18 123.62 37.05Q125.86 36.68 127.43 36.68Q129.39 36.68 131.1 36.47Q132.15 36.37 132.32 36.13Q132.46 35.75 132.46 34.73Q132.46 33.24 132.29 31.31Q132.15 29.54 132.02 28.52L131.88 27.09L131.58 24.95L131.37 23.75Q130.96 20.7 129.26 19.24Q128.17 18.35 127.22 18.04Q126.27 17.73 124.85 17.73Q123.91 17.73 123.07 18.01Q121.94 18.38 120.97 19.24L120.66 19.5Q120.08 19.98 119.74 20.37Q119.4 20.76 119.09 21.58Q120.79 23.25 122.36 25.08L122.8 24.61Q122.95 24.42 123.12 24.25Q123.34 24.03 123.6 23.84Q124.06 23.52 124.3 23.52Q124.7 23.52 124.9 23.59Q125.11 23.65 125.14 23.72Q125.35 23.99 125.52 24.85Q125.52 25.15 125.45 25.16Q125.38 25.18 125.19 25.18Q124.51 25.26 123.85 25.44Q122.57 25.78 121.39 26.49Q120.37 27.1 119.62 27.95Q119.06 28.59 118.65 29.36Q117.6 31.44 117.6 33.21Q117.6 34.37 118.09 35.26Q118.47 35.92 119.13 36.43ZM220.82 36.4L220.89 36.4Q220.93 36.4 221.03 36.35Q221.13 36.3 221.58 36.3L222.89 36.37Q223.51 36.37 224.12 36.24Q224.74 36.13 225.45 36.13Q225.62 36.13 225.78 36.09Q225.87 36.07 225.96 36.03Q226.36 35.9 226.57 35.9L226.8 35.9L226.67 33.24Q226.67 32.67 226.88 29.88Q227.22 25.52 227.39 24.12L227.45 23.38Q227.45 23.08 227.4 23.03Q227.36 22.98 227.35 22.93Q227.35 22.92 227.35 22.9Q227.35 22.81 227.45 22.71Q227.55 22.6 227.63 22.02Q227.69 21.27 227.86 20.18Q228 19.27 228 18.83L228 18.62L227.89 18.28Q227.08 18.25 224.22 17.94L222.93 17.81Q222.89 17.81 222.86 17.82Q222.79 17.86 222.76 18.01L222.55 19.37Q222.42 20.18 222.15 22.63Q221.77 25.45 221.74 26.23Q221.71 26.75 221.61 27.19L221.53 27.36Q221.47 27.29 221.13 26.17L220.52 24.4Q219.84 22.5 219.39 21.07Q219.16 20.26 218.99 19.93Q218.85 19.66 218.65 19.62Q218.62 19.61 218.58 19.61L218.45 19.64Q218.24 19.71 217.96 20.39L217.49 21.68Q216.95 23.28 216.68 23.86Q216.34 24.64 215.79 26.17Q215.32 27.53 215.11 28.04Q214.91 28.55 214.84 28.55L214.84 28.48Q214.8 28.45 214.78 28.33Q214.77 28.21 214.77 27.93L214.77 27.5Q214.8 26.99 214.84 23.89L214.91 20.22Q214.94 19.64 214.98 19.29Q215.01 18.93 215.01 18.56Q215.01 18.52 215 18.5Q214.9 18.15 213.58 18.15Q212.77 18.15 211.68 18.25Q209.98 18.41 209.7 18.49Q209.43 18.56 209.38 18.65Q209.33 18.75 209.33 18.9L209.33 18.96Q209.26 19.71 209.26 21.34Q209.26 24.09 209.36 25.86Q209.4 26.13 209.4 26.44Q209.4 27.19 209.33 27.93Q209.33 29.81 209.43 31.5Q209.54 33.17 209.88 35.83L210.21 35.91Q210.42 35.96 212.42 36.06Q214.43 36.16 214.98 36.27Q215.28 36.34 215.93 36.34L216.37 36.27Q216.54 35.31 216.78 34.7Q217.15 33.75 217.46 32.62Q217.96 30.82 218.2 30.82Q218.3 30.82 218.44 31.4Q218.58 31.99 219.73 34.81Q220.41 36.4 220.82 36.4ZM97.84 36.4L98.86 36.43Q102.23 36.43 104.34 35.12Q105.01 34.64 105.44 34Q106.24 32.82 106.24 31.1Q106.24 30.31 105.99 29.62Q105.89 29.35 105.76 29.1Q105.29 28.18 104.44 27.43Q103.59 26.68 102.52 26.05Q101.45 25.42 100.66 24.67Q100.12 24.06 100.12 23.75Q100.12 23.64 100.17 23.57Q100.3 23.34 100.81 23.34Q101.49 23.34 102.33 23.68Q102.98 24.03 103.35 24.03Q103.47 24.03 103.57 23.98Q103.76 23.9 103.88 23.67Q104.07 23.31 104.37 22.5Q104.51 22.09 104.72 21.33Q104.95 20.56 104.95 19.92Q104.95 19.5 104.81 19.27Q104.28 18.69 102.95 18.36Q101.62 18.04 100.94 18.04Q99.24 18.06 97.95 18.78Q96.74 19.45 95.87 20.73Q95.33 21.75 95.33 23.15Q95.33 24.4 95.77 25.45Q95.84 25.52 95.91 25.59Q95.97 25.66 96.28 26.23L96.41 26.54Q97.64 28.18 99.04 29.06Q100.19 29.94 100.47 30.27Q100.74 30.59 100.74 30.87Q100.74 31.01 100.68 31.13Q100.46 31.54 99.48 31.54Q99.32 31.54 99.16 31.52Q98.78 31.48 98.41 31.32Q97.88 31.1 97.37 30.82Q96.65 30.38 95.94 30.18Q95.7 30.18 95.65 30.29Q95.64 30.3 95.63 30.32Q95.6 30.45 95.58 30.61Q95.57 30.76 95.53 30.87L95.06 33.11Q94.95 33.75 94.81 34.37Q94.68 34.97 94.68 35.28Q94.68 35.56 94.82 35.72Q94.88 35.79 94.97 35.83Q95.26 35.96 95.94 36.09Q96.9 36.34 97.84 36.4ZM231.36 36.4L232.38 36.43Q235.75 36.43 237.86 35.12Q238.52 34.64 238.96 34Q239.76 32.82 239.76 31.1Q239.76 30.31 239.51 29.62Q239.41 29.35 239.28 29.1Q238.81 28.18 237.96 27.43Q237.11 26.68 236.04 26.05Q234.97 25.42 234.18 24.67Q233.64 24.06 233.64 23.75Q233.64 23.64 233.69 23.57Q233.82 23.34 234.32 23.34Q235 23.34 235.85 23.68Q236.5 24.03 236.87 24.03Q236.99 24.03 237.09 23.98Q237.28 23.9 237.39 23.67Q237.59 23.31 237.89 22.5Q238.03 22.09 238.24 21.33Q238.47 20.56 238.47 19.92Q238.47 19.5 238.33 19.27Q237.79 18.69 236.47 18.36Q235.14 18.04 234.46 18.04Q232.76 18.06 231.46 18.78Q230.26 19.45 229.39 20.73Q228.84 21.75 228.84 23.15Q228.84 24.4 229.29 25.45Q229.36 25.52 229.43 25.59Q229.49 25.66 229.8 26.23L229.93 26.54Q231.16 28.18 232.56 29.06Q233.71 29.94 233.98 30.27Q234.26 30.59 234.26 30.87Q234.26 31.01 234.2 31.13Q233.98 31.54 233 31.54Q232.84 31.54 232.68 31.52Q232.3 31.48 231.92 31.32Q231.4 31.1 230.89 30.82Q230.17 30.38 229.46 30.18Q229.22 30.18 229.16 30.29Q229.16 30.3 229.15 30.32Q229.12 30.45 229.1 30.61Q229.09 30.76 229.05 30.87L228.58 33.11Q228.47 33.75 228.33 34.37Q228.2 34.97 228.2 35.28Q228.2 35.56 228.34 35.72Q228.4 35.79 228.49 35.83Q228.78 35.96 229.46 36.09Q230.41 36.34 231.36 36.4ZM68.36 36.71Q68.57 36.81 69.08 36.81Q69.9 36.81 70.37 36.68Q70.85 36.54 71.68 36.03Q72.51 35.52 73.06 35.04Q73.4 34.73 73.54 34.73Q73.54 34.73 73.55 34.73Q73.67 34.76 73.67 35.3Q73.67 35.69 73.86 35.9Q73.95 36 74.07 36.06Q74.22 36.16 75.1 36.16Q76.8 36.16 77.24 35.86Q77.35 35.75 77.35 34.7L77.31 34.36Q77.31 32.77 77.58 29.84Q77.65 29.43 77.92 26.1Q77.95 25.32 78.03 24.74Q78.26 22.77 78.32 20.08Q78.32 19.78 78.37 19.54Q78.37 18.69 78.23 18.54Q78.09 18.38 77.72 18.25L77.69 18.25Q77.41 18.12 75.64 18.12Q74.83 18.12 73.6 18.21Q73.36 20.02 72.95 22.29L72.76 23.34Q72.61 24.06 72.58 24.51Q72.21 28.18 71.83 29.64Q71.69 30.52 71.31 30.64Q71.25 30.66 71.19 30.66Q71.02 30.66 70.41 30.35L70.44 27.5Q70.55 23.59 70.85 22.5Q70.92 22.29 71.29 20.02Q71.43 19 71.43 18.72Q71.43 18.56 71.39 18.52Q71.36 18.49 71.15 18.49Q70.95 18.49 70.8 18.42Q70.65 18.35 70.1 18.31L67.99 18.28Q66.8 18.28 66.51 18.6Q66.22 18.93 66.02 20.18L65.99 20.42Q65.78 21.48 65.68 22.77L65.44 25.59Q65.13 29.33 65.13 30.42Q65.13 32.29 65.44 33.31Q65.62 33.72 65.63 33.89Q65.65 34.06 65.68 34.19Q65.71 34.32 65.79 34.4Q65.79 34.41 65.8 34.42Q65.88 34.5 65.88 34.73Q65.88 34.77 65.93 34.86Q65.99 34.94 66.33 35.25Q66.4 35.35 66.4 35.4Q66.4 35.45 66.75 35.8Q67.11 36.16 67.19 36.16Q67.28 36.16 67.5 36.35Q67.72 36.54 67.96 36.61Q68.07 36.61 68.18 36.66Q68.3 36.71 68.36 36.71ZM200.95 36.73Q201 36.78 201.88 36.78Q202.7 36.68 202.8 36.58Q202.9 36.5 202.94 36.5Q202.99 36.5 203.02 36.53Q203.02 36.54 203.03 36.55Q203.04 36.6 203.07 36.61Q203.07 36.61 203.08 36.61Q203.12 36.61 203.16 36.6Q203.22 36.58 203.26 36.55Q203.34 36.5 203.58 36.4Q204.7 35.9 204.95 35.56L205.45 35.07Q205.97 34.63 206.07 34.35Q206.17 34.06 206.42 33.75Q206.68 33.45 206.68 33.35Q206.68 33.24 207.05 32.67Q207.43 32.09 207.48 31.68Q207.53 31.27 207.59 31.24Q207.6 31.24 207.6 31.24Q207.67 31.19 207.67 31.03Q207.67 30.72 208.08 29.43Q208.11 29.33 208.11 29.1Q208.11 28.86 208.16 28.82Q208.21 28.79 208.21 28.65L208.17 28.48L208.21 28.11Q208.31 27.7 208.31 27.02Q208.31 26.23 208.27 26L208.24 25.86L208.27 25.66Q208.27 25.42 208.14 24.67L208.08 24.23Q207.77 22.22 207.43 21.88Q207.33 21.82 207.27 21.58Q207.22 21.34 206.92 20.76Q206.78 20.52 206.71 20.49L206.37 20.12Q206.03 19.64 205.32 19.2Q204.27 18.49 203.28 18.35L202.5 18.31L201.82 18.35Q201.54 18.41 201.27 18.5Q199.18 19.2 197.74 21.82Q196.82 23.52 196.82 23.72Q196.82 23.79 196.75 23.94Q196.69 24.09 196.48 24.67Q196.11 25.69 196.11 25.76Q196.11 25.83 196.07 25.93Q195.94 26.34 195.83 26.95Q195.67 28.08 195.67 28.59Q195.67 29.1 195.63 29.23Q195.6 29.36 195.6 29.5L195.67 30.11Q195.67 30.25 195.63 30.3Q195.6 30.35 195.57 30.37Q195.56 30.38 195.56 30.42Q195.56 30.44 195.57 30.45Q195.57 30.45 195.57 30.45L195.58 30.45Q195.6 30.45 195.62 30.52Q195.63 30.59 195.77 31.1Q196.2 33.14 196.61 33.61Q196.72 33.72 197.06 34.26L197.4 34.73Q197.6 35.12 197.8 35.15Q197.97 35.18 198 35.26Q198.01 35.28 198.01 35.3Q198.01 35.41 198.62 35.86Q199.23 36.3 199.42 36.3Q199.6 36.3 199.64 36.38Q199.64 36.38 199.64 36.39Q199.67 36.47 200.22 36.61Q200.45 36.68 200.68 36.68Q200.9 36.68 200.95 36.73ZM210.11 19.24L210.08 19.3Q210.05 19.27 210.05 19.09L210.05 19.06Q210.08 19.09 210.1 19.13Q210.11 19.16 210.11 19.24ZM153.23 23.04L153.2 23.11L153.13 23.11Q153.11 23.11 153.1 23.1Q153.06 23.08 153.06 23Q153.06 22.95 153.09 22.92Q153.13 22.87 153.23 22.87L153.23 23.04ZM158.16 31.34Q157.85 31.58 157.65 31.58Q157.52 31.58 157.41 31.53Q157.16 31.4 157.06 30.98Q156.91 30.38 156.91 29.84L156.94 29.4Q157.07 28.79 157.28 28.2Q157.6 27.29 158.09 26.44L158.43 25.79Q159.55 23.59 160.88 23.08L161.08 23.04Q161.17 23.06 161.24 23.1Q161.46 23.26 161.46 23.72Q161.46 24.57 161.02 25.97Q159.83 29.81 158.16 31.34ZM201.92 30.36Q201.84 30.38 201.75 30.38Q201.66 30.38 201.57 30.36Q201.47 30.32 201.38 30.25Q201 29.98 200.83 29.69Q200.66 29.4 200.49 28.76L200.45 28.55L200.49 28.31Q200.49 28.08 200.42 28.03Q200.36 27.97 200.36 27.77Q200.36 27.36 200.56 25.86Q200.7 24.57 200.97 24.02Q201.18 23.59 201.51 23.41Q201.62 23.35 201.75 23.31Q201.99 23.28 202.11 23.21Q202.22 23.15 202.26 23.15Q202.28 23.15 202.29 23.13Q202.29 23.13 202.29 23.13Q202.29 23.13 202.29 23.12Q202.3 23.11 202.33 23.11Q202.4 23.11 202.65 23.59Q202.9 24.06 203.05 24.91Q203.21 25.76 203.21 26.51L203.21 26.75Q203.14 27.7 202.9 28.66Q202.67 29.6 202.4 29.99Q202.19 30.29 201.92 30.36ZM81.66 23.86Q81.66 23.89 81.45 24.09Q81.45 24.09 81.45 24.09Q81.42 24.08 81.42 23.99Q81.44 23.89 81.5 23.85Q81.54 23.83 81.59 23.83L81.66 23.86ZM89.62 23.86Q89.62 23.89 89.41 24.09Q89.41 24.09 89.4 24.09Q89.38 24.08 89.38 23.99Q89.4 23.89 89.46 23.85Q89.5 23.83 89.55 23.83L89.62 23.86ZM63.32 24.05Q63.29 24.09 63.2 24.09Q63.19 24.09 63.18 24.09Q63.16 24.07 63.16 24.03Q63.16 23.95 63.2 23.91Q63.23 23.89 63.27 23.89Q63.29 23.89 63.3 23.9Q63.34 23.92 63.34 23.99Q63.34 24.03 63.32 24.05ZM54.97 29.36Q54.29 29.6 53.78 29.6Q53.44 29.6 53.25 29.43Q53.16 29.35 53.1 29.23Q53 28.79 53 27.4Q53 26.07 53.22 25.79Q53.44 25.52 54.87 25.52Q55.96 25.52 57.08 25.81Q57.96 26.04 58.15 26.53Q58.2 26.66 58.2 26.81Q58.2 27.33 57.38 28.08Q56.74 28.72 54.97 29.36ZM123.96 31.55Q123.68 31.65 123.55 31.65Q123.48 31.65 123.46 31.61Q123.45 31.6 123.45 31.58Q123.45 31.44 124.02 30.38Q124.36 29.74 124.85 29.13Q125.11 28.82 125.43 28.64Q125.75 28.47 126.13 28.42Q126.23 28.58 126.25 28.94Q126.27 29.3 126.29 29.49Q126.31 29.67 126.36 29.78Q126.41 29.88 126.46 29.93Q126.51 29.98 126.51 30.01Q126.51 30.02 126.5 30.02Q126.5 30.05 126.46 30.06Q126.45 30.06 126.45 30.06Q126.41 30.09 126.41 30.18L126.44 30.45Q126.44 30.52 126.42 30.59Q126.3 30.96 125.48 31.1L124.7 31.34Q124.23 31.44 123.96 31.55ZM181.78 30.34Q181.74 30.42 181.55 30.42Q181.39 30.42 181.34 30.34Q181.33 30.32 181.33 30.3Q181.32 30.24 181.3 30.19Q181.27 30.14 181.23 30.1Q181.16 30.02 181.15 29.93Q181.15 29.92 181.15 29.91Q181.15 29.9 181.15 29.89Q181.18 29.81 181.42 29.81Q181.47 29.81 181.48 29.83Q181.49 29.84 181.49 29.84Q181.45 29.84 181.4 29.86Q181.39 29.86 181.38 29.87Q181.35 29.89 181.35 29.98Q181.35 30.01 181.57 30.12Q181.79 30.22 181.79 30.28Q181.79 30.32 181.78 30.34Z" fill="#FFFFFF" fill-opacity="1.000000" fill-rule="evenodd"/>
</svg>
